Coordinates
version=1
nRows=26
nColumns=24
inDegrees=yes

Units are S.I. units (second, meters, Newtons, ...)
Angles are in degrees.

endheader
time	pelvis_tilt	pelvis_list	pelvis_rotation	pelvis_tx	pelvis_ty	pelvis_tz	hip_flexion_r	hip_adduction_r	hip_rotation_r	knee_angle_r	ankle_angle_r	subtalar_angle_r	mtp_angle_r	hip_flexion_l	hip_adduction_l	hip_rotation_l	knee_angle_l	ankle_angle_l	subtalar_angle_l	mtp_angle_l	lumbar_extension	lumbar_bending	lumbar_rotation
      3.19000000	    -11.21410466	     -2.56024798	      8.22309379	     -1.81454819	     -0.03987346	     -0.29903221	     36.98997939	     -4.11905686	    -15.32994575	    -13.00013289	     -3.45578060	     -0.43023275	     13.44293740	     -5.68328158	     -2.66517690	     -4.04927491	    -15.95192781	      7.08672793	     -2.33427237	     -6.03423254	      5.32125870	      3.12564591	    -10.95788135
      3.19500000	    -11.22124411	     -2.74681603	      8.20832700	     -1.80587666	     -0.04062811	     -0.29795323	     36.88285929	     -3.80047139	    -14.95572366	    -13.48628436	     -3.96176917	     -0.69743562	     14.11675170	     -5.83499834	     -3.11347114	     -4.36275276	    -16.51549970	      6.48872113	     -1.79758122	     -5.44636374	      5.51843485	      3.28165876	    -11.01212424
      3.20000000	    -11.30206850	     -2.98528218	      8.17276229	     -1.79707432	     -0.04138934	     -0.29694388	     36.84482420	     -3.44202949	    -14.68178204	    -13.95211023	     -4.64444434	     -0.99712988	     14.70087124	     -5.90401240	     -3.58848805	     -4.57619240	    -17.07712670	      5.79247546	     -1.43053191	     -4.96273077	      5.82615752	      3.49608311	    -11.03471438
      3.20500000	    -11.36240136	     -3.22323248	      8.08959937	     -1.78828427	     -0.04207041	     -0.29585833	     36.79211108	     -3.04798570	    -14.37440040	    -14.40910027	     -5.48207802	     -1.43915184	     15.10852294	     -5.97878477	     -4.06566104	     -4.83519107	    -17.66683500	      5.05190148	     -1.06614378	     -4.60505824	      6.10509669	      3.71979598	    -11.00035437
      3.21000000	    -11.45005672	     -3.50186081	      7.98555033	     -1.77949587	     -0.04269234	     -0.29473071	     36.77001364	     -2.60174083	    -14.05383154	    -14.84029154	     -6.48792011	     -2.08569110	     15.36724976	     -5.98296882	     -4.58552258	     -5.08971316	    -18.31438946	      4.26973453	     -0.70247118	     -4.30621600	      6.41791137	      3.98448486	    -10.95792828
      3.21500000	    -11.54584798	     -3.81400121	      7.82883863	     -1.77068579	     -0.04322970	     -0.29349182	     36.76745881	     -2.08294451	    -13.67786660	    -15.26050010	     -7.61873710	     -2.97587314	     15.56531193	     -5.94703048	     -5.14702617	     -5.41458433	    -19.00718004	      3.39488016	     -0.33898428	     -3.96235638	      6.74684912	      4.28487340	    -10.86555263
      3.22000000	    -11.65439449	     -4.15744030	      7.63622942	     -1.76187830	     -0.04368344	     -0.29221324	     36.79255735	     -1.51259506	    -13.26135231	    -15.69426823	     -8.78085697	     -4.04406154	     15.70218393	     -5.85953871	     -5.74189989	     -5.78044945	    -19.74749435	      2.40995506	     -0.01179218	     -3.53644174	      7.08861286	      4.62575365	    -10.73985869
      3.22500000	    -11.77879692	     -4.54829310	      7.32302923	     -1.75296778	     -0.04408469	     -0.29080212	     36.85901756	     -0.82782835	    -12.77420611	    -16.16432035	     -9.91198324	     -5.19118866	     15.89350505	     -5.75671703	     -6.38964270	     -6.27954615	    -20.49850973	      1.26124173	      0.33948666	     -2.68039048	      7.46274533	      5.03490401	    -10.46452274
      3.23000000	    -11.83022692	     -4.96765037	      7.15708354	     -1.74422961	     -0.04425062	     -0.28957462	     36.82704025	     -0.19218321	    -12.34360154	    -16.63195755	    -10.94938648	     -6.43283569	     16.17493338	     -5.64211811	     -7.07607651	     -6.56266237	    -21.23938292	     -0.55814480	      0.24589167	      0.15209086	      7.74746489	      5.46476790	    -10.41000482
      3.23500000	    -12.02023639	     -5.32375786	      6.88900681	     -1.73552925	     -0.04451016	     -0.28820733	     36.99566930	      0.42445324	    -11.80444344	    -17.23811374	    -11.66916580	     -7.56221908	     15.84934773	     -5.31550458	     -7.66611342	     -6.87939250	    -22.20599919	     -1.80888908	      0.41307097	      0.10129337	      8.15997525	      5.82696252	    -10.23746784
      3.24000000	    -12.14644802	     -5.66908295	      6.65208858	     -1.72688441	     -0.04460924	     -0.28687953	     37.08486780	      1.02740609	    -11.28473260	    -17.86603886	    -12.16750724	     -8.63746564	     15.52106445	     -5.00136193	     -8.24866354	     -7.12404777	    -23.22299612	     -3.23173385	      0.46204771	      0.05154176	      8.49770556	      6.18462708	    -10.11095105
      3.24500000	    -12.28995177	     -6.01251675	      6.34687891	     -1.71823843	     -0.04471310	     -0.28543948	     37.19430601	      1.67072402	    -10.74109961	    -18.52809332	    -12.41261755	     -9.54207375	     15.14747411	     -4.62595608	     -8.83995838	     -7.47621974	    -24.31642466	     -4.77040245	      0.50360268	      0.13521314	      8.84382995	      6.54561105	     -9.90851215
      3.25000000	    -12.42145706	     -6.31677962	      6.05187311	     -1.70964732	     -0.04473586	     -0.28403428	     37.27146529	      2.26942973	    -10.25522284	    -19.19497377	    -12.42029587	    -10.27393400	     14.78938125	     -4.21027897	     -9.38294473	     -7.75700999	    -25.46371923	     -6.48097510	      0.42480283	      0.20798567	      9.16663519	      6.87873292	     -9.72594284
      3.25500000	    -12.54793008	     -6.59222572	      5.74838671	     -1.70110964	     -0.04472229	     -0.28260622	     37.31927330	      2.84499025	     -9.82187792	    -19.84909541	    -12.21474705	    -10.83208222	     14.47788274	     -3.74612492	     -9.89320842	     -8.00657760	    -26.67792693	     -8.30018395	      0.24551225	      0.22173516	      9.47004813	      7.17968475	     -9.53661749
      3.26000000	    -12.58145380	     -6.90824251	      5.49316511	     -1.69258242	     -0.04456798	     -0.28136004	     37.21462676	      3.41618625	     -9.58635589	    -20.43300509	    -11.81114573	    -11.12138038	     14.45211485	     -3.31536498	    -10.44638783	     -8.17334169	    -27.96663748	    -10.11171809	      0.00391906	     -0.07210333	      9.68188392	      7.54186910	     -9.38326872
      3.26500000	    -12.80701717	     -7.09294021	      5.13575275	     -1.68420600	     -0.04462691	     -0.27978139	     37.31855359	      3.92911346	     -9.15612451	    -21.05060549	    -11.27750319	    -11.43097698	     14.01135213	     -2.63495083	    -10.84754994	     -8.36673324	    -29.33336872	    -12.03094448	     -0.31304732	     -0.15952167	     10.05396810	      7.73977227	     -9.16575298
      3.27000000	    -12.82852478	     -7.31033237	      4.84943818	     -1.67598819	     -0.04438459	     -0.27840244	     37.13872579	      4.44152205	     -8.89189743	    -21.54081850	    -10.76281171	    -11.68086640	     13.97515452	     -2.10386576	    -11.27770770	     -8.44539867	    -30.75304906	    -13.90919106	     -0.78301167	     -0.65523687	     10.18348352	      7.99695536	     -9.00191825
      3.27500000	    -12.95905374	     -7.48287124	      4.52095268	     -1.66790391	     -0.04424332	     -0.27702850	     37.05510388	      4.90341909	     -8.62270826	    -22.01532409	    -10.11892444	    -11.71085268	     13.95605237	     -1.39475010	    -11.62701560	     -8.45747124	    -32.27012004	    -15.66424500	     -1.31642306	     -1.46745529	     10.40296961	      8.22102151	     -8.78805098
      3.28000000	    -13.07085304	     -7.67783940	      4.23969334	     -1.65986498	     -0.04401811	     -0.27577143	     36.89985240	      5.34686756	     -8.50345677	    -22.40995592	     -9.39627757	    -11.66426684	     13.81941688	     -0.61718520	    -11.97597800	     -8.34231622	    -33.93560034	    -16.84421318	     -1.74141395	     -4.30433555	     10.60712544	      8.46443770	     -8.62098251
      3.28500000	    -13.06373906	     -7.91431855	      3.88741492	     -1.65190646	     -0.04366164	     -0.27438237	     36.56673159	      5.89554275	     -8.36279951	    -22.69072515	     -8.78137145	    -11.67904168	     13.97874384	      0.02197970	    -12.39415805	     -8.37242758	    -35.51669629	    -18.53381114	     -2.44570416	     -4.87454558	     10.65497438	      8.77413504	     -8.38603312
      3.29000000	    -13.25359837	     -7.99074533	      3.60173611	     -1.64427421	     -0.04340601	     -0.27325478	     36.44046324	      6.18678944	     -8.23460667	    -22.97839263	     -8.12166042	    -11.47682035	     14.67107152	      1.01991030	    -12.52452730	     -8.05536586	    -37.31906395	    -19.41631825	     -3.10072978	     -8.62776877	     10.86746647	      8.90705583	     -8.20964710
      3.29500000	    -13.28200918	     -8.12929328	      3.24101852	     -1.63667626	     -0.04297344	     -0.27206182	     36.09259085	      6.60340261	     -8.07752381	    -23.18645158	     -7.39053762	    -11.16168714	     14.96997774	      1.80542169	    -12.73688968	     -7.90159848	    -38.97542013	    -20.98978322	     -4.13812850	     -9.49061013	     10.88202144	      9.14352789	     -7.94285790
      3.30000000	    -13.41907662	     -8.30299705	      2.94402398	     -1.62914556	     -0.04257741	     -0.27102718	     35.81737636	      6.98942412	     -8.05041521	    -23.27596039	     -6.88503182	    -11.01005686	     15.85233055	      2.83653451	    -12.94318171	     -7.59337003	    -40.82175170	    -21.76102050	     -4.97368115	    -13.08464903	     11.02290068	      9.39901742	     -7.73168010
      3.30500000	    -13.43646948	     -8.46822959	      2.62097256	     -1.62171094	     -0.04202199	     -0.26997893	     35.37878532	      7.40220420	     -7.95151342	    -23.33018982	     -6.22728254	    -10.70324784	     16.08574639	      3.71580414	    -13.12544609	     -7.32509844	    -42.51356670	    -23.29233892	     -6.20882049	    -13.74414103	     11.00375868	      9.66190448	     -7.47349758
      3.31000000	    -13.50054554	     -8.68442410	      2.31235465	     -1.61440365	     -0.04152852	     -0.26901615	     34.97893660	      7.83852090	     -7.94352016	    -23.33574114	     -5.66153961	    -10.44797262	     16.31367043	      4.71859565	    -13.34042340	     -7.02411211	    -44.27142633	    -24.66490184	     -7.51429264	    -14.44229167	     11.01595048	      9.97926568	     -7.20211800
      3.31500000	    -13.70446133	     -8.84308513	      2.04497279	     -1.60715115	     -0.04112951	     -0.26821487	     34.69543180	      8.16833167	     -7.88520555	    -23.27050698	     -5.20525731	    -10.19666452	     17.46543168	      5.97851098	    -13.44267085	     -6.63609450	    -46.18235941	    -25.06683472	     -8.54440171	    -18.53269000	     11.18449788	     10.22784488	     -7.03346572
